<svg id="Ñëîé_1" data-name="Ñëîé 1" xmlns="http://www.w3.org/2000/svg" viewBox="0 0 1200 1200"><defs><style>.cls-1,.cls-13{fill:#fff;}.cls-2{fill:#ed1a4f;}.cls-3{fill:#b3b3b3;}.cls-4{fill:#ccc;}.cls-5{fill:#f2f2f2;}.cls-6{fill:#ffa55f;}.cls-7{fill:#ef9a58;}.cls-8{fill:#f6e2ca;}.cls-10,.cls-9{fill:#e08f53;}.cls-9{opacity:0.76;}.cls-11{opacity:0.11;}.cls-12{fill:#e8c9a9;}.cls-13{opacity:0.6;}</style></defs><rect class="cls-1" width="1200" height="1200"/><circle class="cls-2" cx="600" cy="600" r="520.38"/><path class="cls-3" d="M404.9,777.15H839.54a12.91,12.91,0,0,0,12.91-12.91H392A12.91,12.91,0,0,0,404.9,777.15Z"/><path class="cls-4" d="M392,764.24H852.45c7.13,0,36.25-5.78,36.25-12.91h-533C355.74,758.46,384.86,764.24,392,764.24Z"/><path class="cls-5" d="M347.28,740H897.16a5.66,5.66,0,0,1,5.66,5.65h0l-14.12,5.66h-533l-14.11-5.66h0A5.65,5.65,0,0,1,347.28,740Z"/><path class="cls-6" d="M799.67,788.86c.23,2.5-9.75,10-19.89,17.82-22.24,17.21-38.73,34.61-43.09,39.7-8.27,9.65-54.46,48.94-63.41,58.6l-53.47,58.83a0,0,0,0,1,0,.05c-14.94,17.83-11.52,15.51-35,47.79l-88.11-48.8c5.82-18.52,10.6-35.77,9.76-40.18-2-10.52-3.41-63.23-3.41-65.65s-2.57-22.6-3.41-27.29c-1.23-6.85-4.25-20.85-7.43-27.13v0c-5.71-11.36-14.14-9.17-17.22-14.5-2.84-3.41,3.06-10.48,7.58-10.79a78.3,78.3,0,0,1,15.64.7c9.37,1.12,22.14,7.48,27.88,25,5,15.22,13.89,62.94,32.15,64.45,22.7,1.79,57-12.26,65.86-30.37,20.3-41.5,42.29-53.72,42.29-53.72,18.74-10.68,44.93-8,23.74,11.85-6.27,5.93-11.68,17.29-30.82,45,.61-.62,39-38.82,42.49-40.54,29.25-24.22,34.93-22.47,41.15-22.47,8.13,0,17.76,2.69,19.64,6.87h0c0,.11.08.21.1.31s9.43-7.17,14.53-7.17C793.33,777.15,798.61,777.6,799.67,788.86Z"/><path class="cls-7" d="M615.12,957C600.45,973.72,603,972.4,582,1000l8.22,4c17.54-24.43,15.86-23.9,29.51-40.19a0,0,0,0,0,.05-.05S673.27,905,673.28,905c9-9.66,55.14-48.94,63.41-58.6,4.37-5.09,20.85-22.49,43.09-39.7,10.14-7.86,20.12-15.32,19.9-17.82a21.19,21.19,0,0,0-1-5c.1.69.18,1.42.24,2.21.16,2.5-10,9.74-20.3,17.37-22.62,16.7-39.49,33.72-44,38.71-8.49,9.47-55.55,47.7-64.72,57.15,0,0-54.78,57.61-54.78,57.61S615.15,957,615.12,957Z"/><path class="cls-7" d="M474.93,788.08c3.08,5.33,11.51,3.14,17.22,14.5v0c3.18,6.28,6.2,20.29,7.43,27.13.84,4.69,3.41,24.87,3.41,27.29s1.42,55.13,3.41,65.65c.77,4.08-3.26,19.16-8.48,36.08l41.17,20.11a97.15,97.15,0,0,1-22.2-58.68s-5.56-54.41-6-66.16c-.09-2.42-3.44-22.48-4.47-27.14-1.48-6.79-5.05-20.66-8.46-26.82v0c-6.15-11.13-14.49-8.62-17.78-13.82-2-2.27,0-6.43,2.92-9l-.57,0C478,777.6,472.09,784.67,474.93,788.08Z"/><path class="cls-8" d="M474.92,788.09c1.26,2.17,3.64,3.29,7.3,4.84a18.67,18.67,0,0,1,8,6.41,22.46,22.46,0,0,1,2,3.24c1.9-2.33,4.44-5.66,5.19-7.63,1.24-3.24-2.91-6.23-5.63-7.5C483.64,783.69,479.67,784.39,474.92,788.09Z"/><path class="cls-8" d="M678.13,804.4c.77,1.22,1.55,2.53,2.23,3.74,1.92-3,3.81-5.83,5.59-8.27a35.23,35.23,0,0,1,4.11-4.72c6.6-6.17,8.56-10.44,7.83-13.26-3.85.49-9.2,2.13-12.39,4.91C681.28,790.47,675.84,800.77,678.13,804.4Z"/><path class="cls-9" d="M639.79,874.59c.3-.29,9.81-9.73,12.85-13.35s49.1-61.64,49.1-61.64h0c-4.74,3.92-9.46,8.06-13.12,11.68-10.2,10.1-20.47,20.17-29.15,28.66Z"/><path class="cls-10" d="M742,807c9.49-8.8,14.84-17.54,17-19.84,1.21-1.28,7.59-5.52,8.62-6.22l-1.82,4.73c-.78,2.37-4.46,8.81-6.16,10.46-3,2.94-7.92,7.49-14.84,13.91-11,10.22-43.36,38.93-64.62,61.16C682.09,865.72,724.23,823.59,742,807Z"/><path class="cls-8" d="M738.06,798.66a19.14,19.14,0,0,0,3.92,8.39c9.5-8.81,17-15.78,19.17-18.07,1.72-1.8,2.05-3.47,1.39-5h0c-3.42.1-9.37.66-12.57,3.26C745.29,791.07,737.72,795.91,738.06,798.66Z"/><path class="cls-8" d="M777.05,798.92c-.06,1.35,1.33,4.7,2.73,7.76,8.64-6.7,16.71-12.78,19.15-16.11-6.31-.35-9.35-1.07-13.36,1.61C781.19,795.16,777.18,796.2,777.05,798.92Z"/><path class="cls-1" d="M595.06,1005.76l-4.91,8.88L491.48,960l4.92-8.87c1.47-2.65,24.74,7.43,52,22.52S596.53,1003.11,595.06,1005.76Z"/><path class="cls-1" d="M595.68,1020.33l-55.79,100.05c-44.93-5-87.44-16.36-128.17-32.06l72-130c1.66-3,28.07,8.43,59,25.55S597.34,1017.32,595.68,1020.33Z"/><path class="cls-11" d="M595.68,1020.33l-53.93,96.83q-16-1.79-31.69-4.53l67.61-121.5c11.37,7.45,18.26,13.08,17.39,14.63l-4.6,8.32C594.27,1017.19,596.19,1019.4,595.68,1020.33Z"/><path class="cls-5" d="M356.46,667.42l504.9-174.87C804,369.23,661.4,306.9,530.08,352.39S325.29,535,356.46,667.42Z"/><path class="cls-1" d="M838.37,491.17l-46.48,10.46A250.15,250.15,0,0,0,519.15,374.16C640,324,779,378.87,838.37,491.17Z"/><circle class="cls-5" cx="529.95" cy="332.89" r="27.29" transform="translate(30.21 709.63) rotate(-69.15)"/><ellipse class="cls-4" cx="608.91" cy="579.98" rx="267.16" ry="25.71" transform="translate(-156.29 231.23) rotate(-19.1)"/><path class="cls-7" d="M502.62,273.08c-7.21-7.86-10.87-15.1-14.68-16.08-21.59-5.41,1.08,2.34-40-11.72-3.2,1.29-7.87,3.41-15.08,7.05-16.33,8.24-16.29,13.22-14.4,17.88,1.67,4.11,9.56,2.65,19.76,1.2-10.29,9.35-9.09,14.51-6.32,19.13,3,5,13,1.31,21.33-1.16,2.66-.8,3-.8,5-1.39-4.45,12.42.47,16.45,5.48,19.33,6.05,3.45,14.39-6.21,21.65-13.69C489.4,289.48,492.47,287.39,502.62,273.08Z"/><path class="cls-12" d="M476.41,294.48c-1.79.76-7.75,7.18-8.09,9.72a9.41,9.41,0,0,0,.37,3.46c5.21-1.66,11.23-8.46,16.65-14A23.21,23.21,0,0,0,476.41,294.48Z"/><path class="cls-12" d="M446.39,286.36c-1.61-.17-8.56,2.08-9.84,3.79a8,8,0,0,0-1.14,2.67c4.47.92,11.62-1.59,17.83-3.44A19.4,19.4,0,0,0,446.39,286.36Z"/><path class="cls-12" d="M429.86,268.76c-1.2-.32-6.69.56-7.85,1.7a5.94,5.94,0,0,0-1.17,1.88c3.26,1.21,8.93.16,13.82-.51A14.64,14.64,0,0,0,429.86,268.76Z"/><path class="cls-10" d="M487.24,258.76c-3.33-.83-12.38-2.17-18.69-4.4-2.46-.87-12.08-4.17-23.21-8-1.89.82-4.18,1.87-7,3.22l13.36,4.57c-1.73,1.21-3.6,2.53-5.65,4-8.23,5.9-10.64,13.56-10.25,13.51,1.28-.15,1.33-.13,2.38-.26,5.15-4.69,14.43-11.08,20.25-14.94,9.3,3.2,9,3.17,11.46,3.85-5,7.59-12.6,19.06-14,28.29.68-.18,1.17-.29,2.27-.62,3.14-8.78,9.77-18.5,15.27-26.77,4.81,1.12,12.53,2.66,12.74,2.75s5.58,5.91,8.24,9.15c1.11,1.37,2.18,2.89,4.29,5.29,1-1.32,1.94-2.64,2.86-3.92C494.56,266.71,491,259.71,487.24,258.76Z"/><path class="cls-6" d="M560.35,306.46c-5.83,5.73-13.29,8.87-35.82-10.54s-25.17-24.1-28.1-27.71c-5-6.12-6.4-8.73-9.2-9.45-25.53-6.4,10.85,5.62-69.54-21.83-8.21-2.8-13.9,9.33-11,19,5.88,19.77,31,36.86,43,41.07,9.31,3.24,19,6.39,26.72,12.72,7.58,6.19,15.37,12.91,21,20.95,8.73,12.41,11.19,20,7.53,27.68-5,10.5-11.4,12.29-20.88,3.08-11-10.63-14.52-11.51-14.83-11.58-2.09-1.31-25.11-11.22-25.11-11.22-6.73-2-66.58-7-99.61-9.47-4.18-.31-32.86-5.3-49.24-7.9L291.82,221c21.92-5,31.15-7,37-9.4,3.17-1.31,22.11-13.11,30.83-18.86,19.72-13,42-29,45.62-31.88,7.4-5.82,18.57-8.38,32.58,5.57s43.92,24.67,57.56,34.61c7.82,5.7,17.77,15.44,20.8,22.47,5,13.55,3.71,10.06,6,16.19,0,0,23.28,27.93,28.53,37.79C555.76,287.09,566.21,300.67,560.35,306.46Z"/><path class="cls-7" d="M520.4,234.88l1.77,4.8c-6.78-8.5-13.75-16.94-16.65-19.57-6.21-5.64-38.27-21.37-56.44-34.8-17.31-12.8-16.64-11.91-19.07-13.26,5.78,1.78,16.75,7.74,20.13,10.11,18.31,12.86,49.95,29.74,56.15,35.36C508.92,219.9,514.51,226.83,520.4,234.88Z"/><path class="cls-8" d="M546.82,286.6c.41,2.67,7.07,12.92,10.41,14.24a13.14,13.14,0,0,0,4.85.72c-.43-7.58-7.59-18-13.26-27.24C547.22,278.27,546.48,284.37,546.82,286.6Z"/><path class="cls-13" d="M553,281.07a14.43,14.43,0,0,1-6.15,1.83,32.75,32.75,0,0,1,1.94-8.59C550.17,276.51,551.61,278.78,553,281.07Z"/><path class="cls-7" d="M505.77,346a16,16,0,0,1-1.63,6.6c-2.18,4.61-5.12,8.79-9.61,9-3,.16-6.68-1.47-11.28-5.94-11-10.62-14.52-11.51-14.83-11.57-2.09-1.31-25.11-11.22-25.11-11.22-4.78-1.39-39.5-6-69.75-11.84a49.61,49.61,0,0,1-38-34.15l-21.8-70.94c-2.19.52-4.63,1.09-7.38,1.72,0,0,1.06,104.35.95,105.61,15.65,2.58,33.95,5.7,37.22,5.94,33,2.48,92.88,7.52,99.61,9.47,0,0,23,9.91,25.11,11.22.31.07,3.86.95,14.83,11.57,4.6,4.47,8.29,6.1,11.28,5.95,4.49-.22,7.43-4.41,9.61-9A16.4,16.4,0,0,0,505.77,346Z"/><path class="cls-8" d="M469.27,349.89c.31.06,3.87.94,14.82,11.57,4.61,4.46,8.3,6.09,11.29,5.94a13.15,13.15,0,0,0,2.31-10.24c-1.61-8.13-6.46-14.11-13.43-14.6s-12,2.44-12.49,3.21A13.58,13.58,0,0,0,469.27,349.89Z"/><path class="cls-13" d="M475.13,353.51c-4.08-3.2-5.66-3.58-5.86-3.63a13.73,13.73,0,0,1,2.5-4.12,7.23,7.23,0,0,1,2.38-1.49A17,17,0,0,1,475.13,353.51Z"/><path class="cls-1" d="M312.24,327.9,288,329.1l-6-120.87,24.2-1.2c3.24-.16,7.22,26.77,8.88,60.14S315.48,327.74,312.24,327.9Z"/><path class="cls-1" d="M299.31,336.7l-174,7.57c30.92-54.53,68.13-104.77,115.91-144.72h51.31c3.68-.17,8.2,30.37,10.08,68.25S303,336.52,299.31,336.7Z"/><path class="cls-11" d="M315.74,303.76c-.36,14.59-1.59,24.05-3.5,24.14l-10.19.5c-.68,5.24-1.6,8.24-2.74,8.3l-152.24,6.91q9.62-17,20.45-33.09Z"/></svg>