<svg id="Layer_1" data-name="Layer 1" xmlns="http://www.w3.org/2000/svg" viewBox="0 0 170 187"><defs><style>.cls-1{fill:#f6f8ff;}.cls-2,.cls-4{fill:#ed1a4f;}.cls-2{opacity:0.4;}.cls-3{fill:#fff;}</style></defs><path class="cls-1" d="M159.46,61.79s-25,22,3.79,69c25.61,41.8-31.95,59.91-56.75,55.06-32.12-6.28-50.57-46.89-75.14-34S-17.54,106.43,18.19,85c44.46-26.69,15.93-42.2,19.92-61.77,2.87-14,43.65-35.75,65.63-11,18.51,20.85,27.58,13.39,36,10.61C152,18.82,178.6,39.69,159.46,61.79Z"/><path class="cls-2" d="M88.57,86.56l-8.21,33.65A9.77,9.77,0,0,0,80.2,124a9.79,9.79,0,0,0,7.35,8l40.8,9.95c1.05,11.52,10.58,12.37,14.34,12.76a.12.12,0,0,0,.1,0,.28.28,0,0,0,.07-.09.14.14,0,0,0,0-.11.16.16,0,0,0-.06-.08c-2.7-1.65-3.51-6.16-3.69-9.84l3,.74a9.86,9.86,0,0,0,7.4-1.14,9.86,9.86,0,0,0,4.42-6l8.2-33.65a9.83,9.83,0,0,0,.17-3.82,9.79,9.79,0,0,0-3.89-6.39A9.78,9.78,0,0,0,155,92.68L100.38,79.37a9.76,9.76,0,0,0-11.81,7.19Z"/><path class="cls-3" d="M156.24,103.16l-22.81-5.57a.29.29,0,0,0-.34.21l-1.17,4.8a.28.28,0,0,0,.2.34l22.82,5.56a.28.28,0,0,0,.34-.21l1.17-4.79A.28.28,0,0,0,156.24,103.16Z"/><path class="cls-3" d="M153,116.52,91.17,101.45a.28.28,0,0,0-.34.2l-1.17,4.81a.28.28,0,0,0,.21.33l61.81,15.07a.28.28,0,0,0,.34-.2l1.17-4.8A.28.28,0,0,0,153,116.52Z"/><path class="cls-3" d="M149.73,129.88,87.91,114.81a.27.27,0,0,0-.33.21l-1.18,4.8a.29.29,0,0,0,.21.34l61.81,15.07a.29.29,0,0,0,.34-.21l1.17-4.8A.28.28,0,0,0,149.73,129.88Z"/><path class="cls-4" d="M111.54,46.19,125,89.27a12.81,12.81,0,0,1-.88,9.71,12.71,12.71,0,0,1-7.5,6.24L64.34,121.49c-.42,15.06-12.74,16.94-17.6,17.76a.22.22,0,0,1-.14,0,.31.31,0,0,1-.09-.11.23.23,0,0,1,0-.14.25.25,0,0,1,.08-.12c3.38-2.36,4.06-8.29,4-13.09L46.7,127a12.76,12.76,0,0,1-16-8.37L17.33,75.53a12.68,12.68,0,0,1,.88-9.71,12.78,12.78,0,0,1,7.5-6.25L95.58,37.82a12.74,12.74,0,0,1,16,8.37Z"/><path class="cls-3" d="M62.19,61.62,24.77,73.26a.28.28,0,0,0-.19.35l2,6.31a.28.28,0,0,0,.36.18L64.31,68.47a.3.3,0,0,0,.19-.36l-2-6.3A.29.29,0,0,0,62.19,61.62Z"/><path class="cls-3" d="M109.41,65.62,30.11,90.31a.29.29,0,0,0-.18.35l2,6.31a.29.29,0,0,0,.35.19l79.3-24.7a.27.27,0,0,0,.18-.35l-2-6.31A.28.28,0,0,0,109.41,65.62Z"/><path class="cls-3" d="M114.73,82.81,35.41,107.48a.28.28,0,0,0-.18.35l2,6.31a.27.27,0,0,0,.35.18l79.32-24.66a.29.29,0,0,0,.18-.35l-2-6.31A.29.29,0,0,0,114.73,82.81Z"/></svg>