<svg id="Layer_1" data-name="Layer 1" xmlns="http://www.w3.org/2000/svg" viewBox="0 0 866 606"><defs><style>.cls-1{fill:#bdbdbd;}.cls-2{fill:#efeeee;}.cls-3,.cls-4,.cls-5{fill:#ed1a4f;}.cls-3{opacity:0.2;}.cls-5{opacity:0.1;}</style></defs><path class="cls-1" d="M712,230.9a6,6,0,0,0-11.88,1.86c.87,5.6,2,23.14-4.09,30.19a8.09,8.09,0,0,1-4.88,2.81l.56-33.4A8.43,8.43,0,0,0,691,229a8.69,8.69,0,0,0-14.18-2.77,8.73,8.73,0,0,0-2.52,6.16l1.57,63.39a8.16,8.16,0,0,1-5.08-2.83c-6-7.06-5-24.6-4.09-30.2a6,6,0,1,0-11.88-1.85c-.43,2.75-3.9,27.31,6.83,39.85a20.3,20.3,0,0,0,14.52,7.14l.69,27.59H690l1-57.64a20.29,20.29,0,0,0,14.22-7.12C715.86,258.22,712.38,233.66,712,230.9Z"/><path class="cls-1" d="M152,284.64a3.86,3.86,0,0,0-1.53-2.5,3.83,3.83,0,0,0-6,3.68c.55,3.57,1.25,14.75-2.61,19.25a5.18,5.18,0,0,1-3.11,1.79l.36-21.29a5.54,5.54,0,1,0-11.08,0L129,326a5.13,5.13,0,0,1-3.24-1.81c-3.86-4.49-3.16-15.67-2.61-19.24a3.82,3.82,0,0,0-.69-2.85,3.86,3.86,0,0,0-2.5-1.53,3.82,3.82,0,0,0-2.85.69,3.86,3.86,0,0,0-1.53,2.5c-.27,1.76-2.49,17.42,4.35,25.41a13,13,0,0,0,9.26,4.55l.44,17.59H138l.61-36.75a12.93,12.93,0,0,0,9.06-4.53C154.44,302.05,152.23,286.4,152,284.64Z"/><path class="cls-2" d="M432.51,605.75C671.38,605.75,865,537.2,865,452.63S671.38,299.51,432.51,299.51,0,368.06,0,452.63,193.64,605.75,432.51,605.75Z"/><path class="cls-1" d="M446.8,203.27a2.34,2.34,0,0,0-1.46-1,2.27,2.27,0,0,0-1.72.35,2.29,2.29,0,0,0-.62,3.18c1.2,1.79,4.41,7.67,3.46,11.08a3.11,3.11,0,0,1-1.23,1.76L440,207a3.33,3.33,0,0,0-1.88-1.71,3.39,3.39,0,0,0-2.54.12,3.34,3.34,0,0,0-1.7,1.88,3.29,3.29,0,0,0,.12,2.54l10.77,21.64a3.07,3.07,0,0,1-2.21-.16c-3.23-1.46-5.68-7.69-6.29-9.77a2.29,2.29,0,1,0-4.4,1.28c.3,1,3.06,10.06,8.79,12.66a7.76,7.76,0,0,0,6.17.12l4.68,9.42L456,242.9l-9-20.06a7.73,7.73,0,0,0,3.77-4.75C452.56,212.07,447.4,204.15,446.8,203.27Z"/><path class="cls-1" d="M361.07,257.94a2.8,2.8,0,0,1-.47,1.56,2.74,2.74,0,0,1-1.25,1,2.8,2.8,0,0,1-3.83-2,2.89,2.89,0,0,1,.16-1.62,2.82,2.82,0,0,1,1-1.26,2.88,2.88,0,0,1,1.56-.47,2.8,2.8,0,0,1,2.8,2.79Z"/><path class="cls-1" d="M491,208.36a2.18,2.18,0,0,1-.35,1.19,2.24,2.24,0,0,1-1,.79,2.16,2.16,0,0,1-1.23.12,2.14,2.14,0,0,1-1.68-1.67,2.16,2.16,0,0,1,.12-1.23,2.06,2.06,0,0,1,.79-1,2.16,2.16,0,0,1,1.18-.36,2.13,2.13,0,0,1,2.13,2.12Z"/><path class="cls-3" d="M430.77,105.1,157.88,401.34l395.18,3.85L535.37,140.37Z"/><path class="cls-4" d="M544,179.84a7.11,7.11,0,0,0,6.7-1.21,7.24,7.24,0,0,0,2.1-2.82,7.14,7.14,0,0,0,.48-3.48l-3.87-33.58a7.05,7.05,0,0,0-7.75-5.64,7.07,7.07,0,0,0-6.25,7.26L539.24,174a7.11,7.11,0,0,0,4.76,5.84Z"/><path class="cls-4" d="M561.05,176.49A14.39,14.39,0,1,0,543.64,187,14.39,14.39,0,0,0,561.05,176.49Z"/><path class="cls-4" d="M400,131.28a7.06,7.06,0,0,1-2.83-11.59l23.41-24.38a7.07,7.07,0,0,1,10.2,9.79l-23.42,24.38a7.07,7.07,0,0,1-7.36,1.8Z"/><path class="cls-4" d="M411.78,134.26a14.39,14.39,0,1,0-20.35-.17A14.39,14.39,0,0,0,411.78,134.26Z"/><path class="cls-4" d="M487.42,116.49A861.91,861.91,0,0,1,403.59,83.6c14.11,22.61,40.73,43.08,74.58,54.49,33.56,11.31,66.87,11.26,91.72,2C545.46,134.54,517.19,126.53,487.42,116.49Z"/><path class="cls-5" d="M649.26,142c4.72-14-61-48.77-146.77-77.69s-159.14-41-163.85-27,61,48.77,146.77,77.69S644.54,155.94,649.26,142Z"/><path class="cls-3" d="M487.33,110.11C407.47,83.18,345,51.18,340.59,35.6a5.34,5.34,0,0,0-1.95,2.52c-4.72,14,61,48.77,146.77,77.69s159.13,41,163.84,27a5.23,5.23,0,0,0,0-3.18C636.27,149.38,567.19,137,487.33,110.11Z"/><path class="cls-4" d="M499.85,79.36a485.55,485.55,0,0,0,78.54,18.78A83.33,83.33,0,0,0,422,45.81S460,65.94,499.85,79.36Z"/></svg>