<svg id="Layer_1" data-name="Layer 1" xmlns="http://www.w3.org/2000/svg" xmlns:xlink="http://www.w3.org/1999/xlink" viewBox="0 0 494 231"><defs><style>.cls-1{fill:none;}.cls-2,.cls-4{fill:#fff;}.cls-3{fill:#c4c4c4;}.cls-4{stroke:#ed1a4f;stroke-miterlimit:10;}.cls-5{fill:#ed1a4f;}.cls-6{clip-path:url(#clip-path);}</style><clipPath id="clip-path"><rect class="cls-1" x="216" y="157" width="53" height="53"/></clipPath></defs><rect class="cls-2" x="39" y="55" width="410" height="100" rx="12"/><rect class="cls-3" x="52" y="69" width="72" height="72" rx="7"/><rect class="cls-3" x="139" y="72" width="176" height="18" rx="7"/><rect class="cls-3" x="138" y="103" width="208" height="18" rx="7"/><rect class="cls-4" x="404.5" y="0.5" width="89" height="89" rx="10.5"/><rect class="cls-4" x="199.5" y="141.5" width="89" height="89" rx="10.5"/><rect class="cls-4" x="0.5" y="17.5" width="68" height="68" rx="10.5"/><path class="cls-5" d="M437.75,36.19a1.87,1.87,0,0,0,1.87-1.88V22.88a1.87,1.87,0,1,0-3.74,0V34.31A1.87,1.87,0,0,0,437.75,36.19Z"/><path class="cls-5" d="M444.78,21a1.88,1.88,0,0,0-1.87,1.88V34.59a5.16,5.16,0,0,1-10.32,0V22.88a1.88,1.88,0,1,0-3.75,0V34.59a8.92,8.92,0,0,0,7,8.71V67.12a1.87,1.87,0,1,0,3.74,0V43.3a8.92,8.92,0,0,0,7-8.71V22.88A1.88,1.88,0,0,0,444.78,21Z"/><path class="cls-5" d="M466.87,26c-1.77-3.22-4.12-5-6.62-5s-4.85,1.78-6.62,5a18.84,18.84,0,0,0-2.29,8.59,8.92,8.92,0,0,0,7,8.71V67.12a1.87,1.87,0,1,0,3.74,0V43.3a8.92,8.92,0,0,0,7-8.71A18.84,18.84,0,0,0,466.87,26Zm-6.62,13.75a5.17,5.17,0,0,1-5.16-5.16,15,15,0,0,1,1.83-6.78c1-1.89,2.31-3.06,3.33-3.06s2.29,1.17,3.33,3.06a15,15,0,0,1,1.83,6.78A5.17,5.17,0,0,1,460.25,39.75Z"/><path class="cls-5" d="M25.83,44.71a1.44,1.44,0,0,0,1.44-1.45V34.45a1.45,1.45,0,1,0-2.89,0v8.81A1.45,1.45,0,0,0,25.83,44.71Z"/><path class="cls-5" d="M31.25,33a1.45,1.45,0,0,0-1.45,1.45v9a4,4,0,0,1-7.95,0v-9a1.45,1.45,0,1,0-2.89,0v9a6.88,6.88,0,0,0,5.42,6.71V68.55a1.45,1.45,0,1,0,2.89,0V50.19a6.87,6.87,0,0,0,5.42-6.71v-9A1.44,1.44,0,0,0,31.25,33Z"/><path class="cls-5" d="M48.27,36.86C46.91,34.37,45.1,33,43.17,33s-3.73,1.37-5.1,3.86a14.5,14.5,0,0,0-1.76,6.62,6.87,6.87,0,0,0,5.42,6.71V68.55a1.45,1.45,0,1,0,2.89,0V50.19A6.88,6.88,0,0,0,50,43.48,14.39,14.39,0,0,0,48.27,36.86Zm-5.1,10.59a4,4,0,0,1-4-4,11.58,11.58,0,0,1,1.41-5.23c.79-1.46,1.78-2.36,2.56-2.36s1.77.9,2.57,2.36a11.58,11.58,0,0,1,1.41,5.23A4,4,0,0,1,43.17,47.45Z"/><g class="cls-6"><path class="cls-5" d="M252.29,192a8.25,8.25,0,0,0-8.13-6.88H227.59a8.25,8.25,0,0,0-8.13,6.88,4.94,4.94,0,0,0,0,9.42,8.25,8.25,0,0,0,8.13,6.88h16.57a8.25,8.25,0,0,0,8.13-6.88,4.94,4.94,0,0,0,0-9.42Zm-24.7-3.57h16.57a5,5,0,0,1,4.66,3.31H222.93A5,5,0,0,1,227.59,188.47ZM244.16,205H227.59a5,5,0,0,1-4.66-3.31h25.89A5,5,0,0,1,244.16,205Zm6.62-6.62H221a1.66,1.66,0,1,1,0-3.32h29.81a1.66,1.66,0,1,1,0,3.32Z"/><path class="cls-5" d="M268.57,169.13a1.69,1.69,0,0,0-1.23-.54H257.7l1.11-6.62h8.53a1.66,1.66,0,1,0,0-3.31h-9.93a1.66,1.66,0,0,0-1.64,1.38l-1.42,8.55H244.16a1.69,1.69,0,0,0-1.23.54,1.64,1.64,0,0,0-.42,1.27l.92,10.14a1.71,1.71,0,0,0,1.8,1.51,1.66,1.66,0,0,0,1.5-1.8l-.76-8.34h19.56l-3,33.12h-6.77a1.66,1.66,0,1,0,0,3.31H264a1.65,1.65,0,0,0,1.65-1.5L269,170.4A1.64,1.64,0,0,0,268.57,169.13Z"/></g></svg>